HIERARCHY
ROOT hip
{
  OFFSET 0 0 0
  CHANNELS 6 Xposition Yposition Zposition Zrotation Yrotation Xrotation
  JOINT abdomen
  {
    OFFSET 0 20.6881 -0.73152
    CHANNELS 3 Zrotation Xrotation Yrotation
    JOINT chest
    {
      OFFSET 0 11.7043 -0.48768
      CHANNELS 3 Zrotation Xrotation Yrotation
      JOINT neck
      {
        OFFSET 0 22.1894 -2.19456
        CHANNELS 3 Zrotation Xrotation Yrotation
        JOINT head
        {
          OFFSET -0.24384 7.07133 1.2192
          CHANNELS 3 Zrotation Xrotation Yrotation
          JOINT leftEye
          {
            OFFSET 4.14528 8.04674 8.04672
            CHANNELS 3 Zrotation Xrotation Yrotation
            End Site
            {
              OFFSET 1 0 0
            }
          }
          JOINT rightEye
          {
            OFFSET -3.6576 8.04674 8.04672
            CHANNELS 3 Zrotation Xrotation Yrotation
            End Site
            {
              OFFSET 1 0 0
            }
          }
        }
      }
      JOINT rCollar
      {
        OFFSET -2.68224 19.2634 -4.8768
        CHANNELS 3 Zrotation Xrotation Yrotation
        JOINT rShldr
        {
          OFFSET -8.77824 -1.95073 1.46304
          CHANNELS 3 Zrotation Xrotation Yrotation
          JOINT rForeArm
          {
            OFFSET -28.1742 -1.7115 0.48768
            CHANNELS 3 Zrotation Xrotation Yrotation
            JOINT rHand
            {
              OFFSET -22.5879 0.773209 7.07136
              CHANNELS 3 Zrotation Xrotation Yrotation
              JOINT rThumb1
              {
                OFFSET -1.2192 -0.487915 3.41376
                CHANNELS 3 Zrotation Xrotation Yrotation
                JOINT rThumb2
                {
                  OFFSET -3.37035 -0.52449 3.41376
                  CHANNELS 3 Zrotation Xrotation Yrotation
                  End Site
                  {
                    OFFSET -1.78271 -1.18214 1.43049
                  }
                }
              }
              JOINT rIndex1
              {
                OFFSET -7.75947 0.938293 5.60832
                CHANNELS 3 Zrotation Xrotation Yrotation
                JOINT rIndex2
                {
                  OFFSET -2.54057 -0.884171 1.56538
                  CHANNELS 3 Zrotation Xrotation Yrotation
                  End Site
                  {
                    OFFSET -1.62519 -0.234802 1.16502
                  }
                }
              }
              JOINT rMid1
              {
                OFFSET -8.24714 1.18213 3.41376
                CHANNELS 3 Zrotation Xrotation Yrotation
                JOINT rMid2
                {
                  OFFSET -3.10165 -0.590103 1.0647
                  CHANNELS 3 Zrotation Xrotation Yrotation
                  End Site
                  {
                    OFFSET -2.48547 -0.328903 0.83742
                  }
                }
              }
              JOINT rRing1
              {
                OFFSET -8.82822 0.546677 1.51678
                CHANNELS 3 Zrotation Xrotation Yrotation
                JOINT rRing2
                {
                  OFFSET -2.60934 -0.819778 -0.0198488
                  CHANNELS 3 Zrotation Xrotation Yrotation
                  End Site
                  {
                    OFFSET -2.33842 -0.294052 0.168128
                  }
                }
              }
              JOINT rPinky1
              {
                OFFSET -8.27202 -0.0477905 -0.4584
                CHANNELS 3 Zrotation Xrotation Yrotation
                JOINT rPinky2
                {
                  OFFSET -1.82734 -0.647385 -0.700984
                  CHANNELS 3 Zrotation Xrotation Yrotation
                  End Site
                  {
                    OFFSET -1.69225 -0.51767 -0.607171
                  }
                }
              }
            }
          }
        }
      }
      JOINT lCollar
      {
        OFFSET 2.68224 19.2634 -4.8768
        CHANNELS 3 Zrotation Xrotation Yrotation
        JOINT lShldr
        {
          OFFSET 8.77824 -1.95073 1.46304
          CHANNELS 3 Zrotation Xrotation Yrotation
          JOINT lForeArm
          {
            OFFSET 28.1742 -1.7115 0.48768
            CHANNELS 3 Zrotation Xrotation Yrotation
            JOINT lHand
            {
              OFFSET 22.5879 0.773209 7.07136
              CHANNELS 3 Zrotation Xrotation Yrotation
              JOINT lThumb1
              {
                OFFSET 1.2192 -0.487915 3.41376
                CHANNELS 3 Zrotation Xrotation Yrotation
                JOINT lThumb2
                {
                  OFFSET 3.37035 -0.52449 3.41376
                  CHANNELS 3 Zrotation Xrotation Yrotation
                  End Site
                  {
                    OFFSET 1.78271 -1.18214 1.43049
                  }
                }
              }
              JOINT lIndex1
              {
                OFFSET 7.75947 0.938293 5.60832
                CHANNELS 3 Zrotation Xrotation Yrotation
                JOINT lIndex2
                {
                  OFFSET 2.54057 -0.884171 1.56538
                  CHANNELS 3 Zrotation Xrotation Yrotation
                  End Site
                  {
                    OFFSET 1.62519 -0.234802 1.16502
                  }
                }
              }
              JOINT lMid1
              {
                OFFSET 8.24714 1.18213 3.41376
                CHANNELS 3 Zrotation Xrotation Yrotation
                JOINT lMid2
                {
                  OFFSET 3.10165 -0.590103 1.0647
                  CHANNELS 3 Zrotation Xrotation Yrotation
                  End Site
                  {
                    OFFSET 2.48547 -0.328903 0.83742
                  }
                }
              }
              JOINT lRing1
              {
                OFFSET 8.82822 0.546677 1.51678
                CHANNELS 3 Zrotation Xrotation Yrotation
                JOINT lRing2
                {
                  OFFSET 2.60934 -0.819778 -0.0198488
                  CHANNELS 3 Zrotation Xrotation Yrotation
                  End Site
                  {
                    OFFSET 2.33842 -0.294052 0.168128
                  }
                }
              }
              JOINT lPinky1
              {
                OFFSET 8.27202 -0.0477905 -0.4584
                CHANNELS 3 Zrotation Xrotation Yrotation
                JOINT lPinky2
                {
                  OFFSET 1.82734 -0.647385 -0.700984
                  CHANNELS 3 Zrotation Xrotation Yrotation
                  End Site
                  {
                    OFFSET 1.69225 -0.51767 -0.607171
                  }
                }
              }
            }
          }
        }
      }
    }
  }
  JOINT rButtock
  {
    OFFSET -8.77824 4.35084 1.2192
    CHANNELS 3 Zrotation Xrotation Yrotation
    JOINT rThigh
    {
      OFFSET 0 -1.70687 -2.19456
      CHANNELS 3 Zrotation Xrotation Yrotation
      JOINT rShin
      {
        OFFSET 0 -36.8199 0.73152
        CHANNELS 3 Zrotation Xrotation Yrotation
        JOINT rFoot
        {
          OFFSET 0.73152 -45.1104 -5.12064
          CHANNELS 3 Zrotation Xrotation Yrotation
          End Site
          {
            OFFSET -1.1221 -3.69964 12.103
          }
        }
      }
    }
  }
  JOINT lButtock
  {
    OFFSET 8.77824 4.35084 1.2192
    CHANNELS 3 Zrotation Xrotation Yrotation
    JOINT lThigh
    {
      OFFSET 0 -1.70687 -2.19456
      CHANNELS 3 Zrotation Xrotation Yrotation
      JOINT lShin
      {
        OFFSET 0 -36.8199 0.73152
        CHANNELS 3 Zrotation Xrotation Yrotation
        JOINT lFoot
        {
          OFFSET -0.73152 -45.1104 -5.12064
          CHANNELS 3 Zrotation Xrotation Yrotation
          End Site
          {
            OFFSET 1.1221 -3.69964 12.103
          }
        }
      }
    }
  }
}
MOTION
Frames:	7
Frame Time:	0.03333
36.0929 66.2342 45.3662 12.087832 56.281521 14.572222 -13.453761 5.138578 -110.525677 4.551302 3.512766 122.608668 -11.524835 31.497852 -118.797594 38.592458 25.349539 74.63184 -0.001683 -0.0 0.003937 0.002765 -0.0 -0.001837 -6.260306 26.245005 7.478235 -104.894191 32.806469 75.772947 92.603782 52.31002 -105.017156 -176.290562 44.234944 151.75603 -0.492226 0.484333 0.078594 25.937521 -42.300822 -16.407719 169.564868 -65.841768 109.954712 -76.803953 55.579198 63.389194 -36.037115 51.722894 29.832295 -7.190786 26.201865 6.143814 -0.016772 -1.323152 -0.415829 10.852375 -6.440852 -0.856484 -149.54952 27.15345 -145.546052 -146.860552 8.864627 -141.044785 80.165796 68.3725 -83.26078 167.64033 -37.82741 -102.558976 159.747199 75.664681 96.236555 10.083974 -25.731191 6.67442 7.759453 7.438703 -1.682079 21.979558 17.937204 -23.108489 129.577873 16.761032 -108.785023 -45.064812 -54.795102 -3.193602 169.091618 -33.247239 -145.3739 163.38231 -4.766637 -142.984656 0.000602 -0.060932 0.018546 -10.804118 -7.444043 0.973918 -34.801356 84.365531 -3.819213 155.716776 35.936693 147.029188 6.9e-05 -0.001043 -8.9e-05 -47.449289 -66.175562 -104.407723 -85.522106 22.982536 -89.609456 -176.592707 18.128036 178.60129 -0.010418 -0.00059 -0.010418 7.99377 4.121236 117.101774 46.762119 -19.231027 91.664016 161.675125 5.836242 152.645595
36.8606 66.0915 45.8217 12.422443 57.052868 15.283072 -13.38016 5.464274 -82.177564 6.66641 0.819643 93.853361 7.476365 23.037699 87.200026 -36.177336 10.901804 -121.561857 -0.001157 0.0 -0.002487 -0.000744 -0.0 0.000732 3.253905 -26.575698 -5.207586 6.880412 17.983869 67.272576 8.340622 -48.776683 23.87393 -9.724812 48.211305 5.188559 -78.030376 38.68963 42.412786 -37.675753 -1.093091 41.236853 -90.226537 41.072208 75.796161 30.83213 -38.658919 -1.974901 -36.913099 52.189911 30.651387 3.114298 0.868581 0.188528 -145.123868 1.973666 -179.748417 11.760871 29.608806 -5.635462 -126.796718 -26.619578 -124.512994 -126.049481 -29.785885 -124.422759 143.620424 38.233543 -148.080983 -77.951742 -18.414934 -92.609865 85.791582 -28.139645 -55.645649 -167.776676 -78.21035 -147.278086 -114.537846 -50.245016 -55.7226 163.150976 -15.729483 -119.019214 50.387321 40.826417 -40.024102 162.897466 -8.471575 -112.305698 0.056266 0.168048 -0.032701 170.276262 -26.251456 -144.304606 0.0204 -1.726033 0.542593 52.636206 -86.662686 74.274671 126.131967 -27.468976 123.868682 18.669992 -35.390479 20.965 -0.001494 0.000637 -0.0 -49.478941 -64.819042 -47.024862 -19.422378 82.787767 147.803845 -125.158305 -33.570309 149.569216 -0.000563 0.000637 0.000724 8.768834 4.885661 143.855483 19.10409 -31.604175 -123.696424 -112.583412 -32.995565 -16.341545
37.513999999999996 65.9749 46.0472 12.841111 56.975564 15.756428 -16.21728 6.991579 1.338853 4.374219 -8.664603 10.909757 5.374162 31.673314 137.812554 -24.419476 38.752884 -167.690569 -0.003892 0.0 -0.003187 -0.003473 -0.0 3.7e-05 -81.707999 68.336357 84.81877 -48.055032 15.746235 0.339831 -175.996431 -20.28651 -161.473768 -7.270428 41.132008 3.940669 2.463064 -2.445895 -0.326483 9.748963 -15.586357 -9.52119 -83.733718 42.33006 69.989439 47.612201 -52.83991 8.279333 -0.057431 0.167952 0.031645 144.667822 -74.672495 112.903285 -69.295494 72.946882 87.016783 3.224584 44.679113 2.592873 -12.837023 -24.809811 -12.206287 -105.043666 -47.916808 -104.646099 6.042433 25.599148 -7.234375 96.487279 11.383334 176.65253 3.440524 30.983532 130.102179 162.387439 10.674186 -139.506318 0.544716 0.535929 -0.085504 -10.677059 -15.083723 7.902196 -0.185115 -0.300144 0.105073 -178.576052 -38.00046 -104.762337 86.294433 60.959809 -77.857606 -2.857231 1.674093 -0.39192 0.000539 0.063544 -0.021568 156.483955 -25.092117 -174.790483 8.192016 -17.575694 7.72949 -2.834233 -0.00202 0.039745 -179.996276 75.750431 -0.002548 160.634042 2.316405 0.414168 -20.162398 73.958969 53.143915 78.273045 -37.776298 -11.539292 -0.001568 -0.000789 -0.001568 8.303679 6.617539 128.294444 39.349322 -25.449296 81.843507 -133.364689 -4.940773 176.298247
38.0023 65.7985 46.2057 13.706328 56.503869 16.763713 -19.066678 5.085418 65.91373 -3.756148 -8.814649 -53.440043 -13.81233 28.379059 -94.07904 40.120056 11.173084 53.866626 0.003145 -0.0 -2.5e-05 0.003145 -0.0 -2.5e-05 2.530052 -18.881231 -3.793685 -162.10637 -13.582251 114.490777 7.367794 -42.435187 -50.77398 154.3556 -37.069432 138.842914 -68.482221 37.953392 35.660063 66.475387 -47.039101 21.825393 -19.170806 24.114096 13.381931 -67.156367 48.770591 49.329021 -160.672404 -6.668304 143.243962 -163.290367 -4.786759 142.96378 -145.112467 -0.669421 -178.919502 -66.841701 87.6849 80.16251 -135.455302 -12.621417 -132.839372 -161.779022 55.93212 -146.885805 -3.541543 -62.053033 13.039796 76.153366 -26.314737 81.30776 87.475451 24.801465 98.930898 -175.931451 -66.13351 -151.811026 169.290362 -6.971016 -89.920942 38.268488 -23.550519 -7.016392 36.777206 35.984122 -28.062592 178.972731 -31.879619 -108.961566 -0.048755 -0.138396 0.02672 163.580398 -5.703643 -143.447596 0.020177 -1.725999 0.542816 -9.841409 -62.544718 9.190555 -1.136532 3.040318 -1.043235 -1.448737 -2.654321 0.822302 0.00051 0.000654 -0.000655 -55.630271 -66.544252 158.635454 -80.709104 -60.683402 -150.479925 -136.987051 -44.358902 132.245465 -0.002133 0.000244 -0.000533 9.601122 7.931367 -123.776193 -32.145508 -26.208669 2.972469 -103.958871 45.819352 -162.881117
38.4236 65.6168 46.286 13.664035 56.446313 16.929866 -14.618184 3.216823 -102.141959 4.903708 3.100487 114.859188 7.728096 23.32326 87.968403 -36.202603 11.345645 -123.281156 -0.000947 0.0 -0.000834 -0.000947 0.0 -0.000834 -0.272945 1.606834 0.360877 75.148509 -28.500876 83.830211 178.698474 -14.644894 123.836731 156.316556 -33.940248 140.458334 -121.36465 30.329958 71.958298 -135.376587 -13.022133 70.700418 -166.820877 -43.973834 122.062506 -46.146798 55.052048 34.146198 -148.319514 24.24825 135.132889 -172.182893 -31.377927 143.693642 -73.16507 -72.143276 -90.197736 -149.815312 -27.474115 -179.827159 54.233541 87.258169 -14.512884 -24.404256 -39.476106 -24.494353 157.760648 -21.736711 -165.397366 -127.95129 9.258226 -158.648659 -169.562384 -5.384969 -41.119259 153.10632 29.252657 -130.707652 7.351015 7.06241 -1.569799 143.881031 -49.918075 -115.373422 46.207904 39.653018 -36.318501 0.65222 10.851998 0.301827 36.036832 51.722675 -29.833051 -29.663339 -60.159651 -6.55438 0.008052 -0.831328 0.261441 -10.354343 0.622277 -0.010821 144.856597 11.080064 141.543314 148.13068 13.456508 142.100235 179.961462 75.750077 0.031709 160.055383 1.221597 -0.0 -64.814091 72.703896 -18.577131 137.376544 68.570632 -48.081939 -179.992742 75.749435 -0.007489 -123.918307 79.561105 123.476916 8.626321 -39.361882 68.939593 -35.7012 46.112203 161.114902
38.8154 65.449 46.274 13.10078 56.505207 16.436668 -14.025787 3.214011 -102.649662 4.960683 3.158295 114.944601 -12.708457 20.508937 -47.431714 29.971812 -15.414857 14.955936 0.000546 0.0 0.002205 -0.000554 0.0 -0.002401 2.049622 -14.560976 -2.978848 68.642915 -20.290422 69.195836 -59.072177 54.750864 59.77511 10.644938 -15.082415 7.102531 88.929031 -50.831659 37.598697 -15.647401 -43.197092 -30.238179 10.281279 -18.182645 -4.587196 -64.483234 48.977404 51.293469 173.126909 -66.298149 137.617392 -18.342321 42.13678 14.729308 0.001907 0.063785 0.019941 6.139184 33.722606 5.591213 12.988493 44.344434 10.759792 2.939839 3.501856 0.704572 -4.239456 -44.742735 8.647895 177.245017 17.759845 117.903239 27.233028 -70.135589 -71.417658 8.135754 -34.566888 7.991891 164.699062 -2.371889 -89.584335 86.074208 5.837695 -33.229208 152.315799 -18.948048 -121.429633 12.66171 37.029468 -3.636324 -68.984694 -80.15375 -40.579327 -11.257879 -24.950111 1.355639 0.013917 -1.323186 0.415673 -5.349852 37.800651 -6.637813 13.277431 -25.41098 12.630523 -42.511501 82.561961 4.929547 179.999455 75.748578 -0.0 159.858387 1.187248 0.018002 -74.874404 75.254473 -34.950841 29.736636 -15.312381 132.600818 -0.000964 -0.000662 0.0 10.279943 9.694066 -114.345105 -40.369362 -12.815647 -110.55525 -28.647173 6.202537 -109.994089
39.0893 65.3499 46.2377 12.912482 56.196559 16.208334 -16.215641 6.184452 1.104576 4.155764 -8.538356 11.45377 -7.250188 34.812228 -148.299893 27.033914 39.60959 102.205618 0.002021 -0.0 -0.003052 -0.003586 0.0 -0.001903 -33.836037 -85.66587 -55.253111 63.12743 19.700412 11.549021 -173.046929 -16.606888 126.584918 148.033852 -45.174038 133.399607 51.05924 -41.204359 12.85656 -149.421386 -29.542177 128.888423 -108.426952 34.160253 91.742671 85.396641 -66.791073 37.947179 -153.322804 13.629129 138.861828 1.894743 4.009727 0.930062 -0.007321 -0.831389 -0.261062 11.320157 -48.270442 -6.098031 -75.779361 -51.668067 -74.24927 -139.436926 -7.30313 -137.157732 80.166197 68.372083 -83.260758 156.775748 -36.604623 -106.834808 149.615346 69.922251 105.817602 8.921676 -31.575891 7.596329 17.200273 15.601013 -4.929591 122.31801 -20.566496 -104.353991 4.708154 7.223062 -2.857408 2.950122 17.811254 -4.275577 36.036814 51.722571 -29.833341 176.373936 -42.270128 -142.7753 -0.004502 1.854423 -0.582489 155.569204 -1.179754 -171.990307 133.87751 -15.638745 131.332971 39.282241 -47.949727 40.50044 -0.000267 0.000469 0.000343 -54.473903 -64.787654 -52.141655 -74.247739 75.503165 -29.481568 -167.160514 73.217267 -104.076228 -0.001982 0.000469 -0.000991 9.864722 11.536694 -41.006545 -29.970136 29.833013 -139.135481 -83.479081 -23.845546 -165.000872
